<svg id="Capa_1" data-name="Capa 1" xmlns="http://www.w3.org/2000/svg" viewBox="0 0 976 976"><defs><style>.cls-1{fill:#011e41;}.cls-2{fill:#8ab7e9;}.cls-3{fill:#fff;}</style></defs><path class="cls-1" d="M488.06,21.21c-257.8,0-466.85,209-466.85,466.73S230.26,954.79,488.06,954.79,954.79,745.72,954.79,487.94,745.81,21.21,488.06,21.21m0,896.92c-237.53,0-430.15-192.66-430.15-430.19S250.53,57.84,488.06,57.84s430.05,192.59,430.05,430.1-192.54,430.19-430,430.19"/><path class="cls-2" d="M488.06,57.84c-237.53,0-430.15,192.59-430.15,430.07S250.53,918.13,488.06,918.13,918.11,725.47,918.11,487.91,725.57,57.84,488.06,57.84m0,837.05c-224.76,0-406.95-182.12-406.95-407,0-224.68,182.19-406.86,407-406.86S894.89,263.23,894.89,487.91c0,224.86-182.16,407-406.83,407"/><path class="cls-1" d="M488.06,81.05C263.3,81.05,81.11,263.23,81.11,488s182.19,406.88,407,406.88S894.89,712.77,894.89,488s-182.16-407-406.83-407"/><path class="cls-3" d="M422.65,613.31h85.44c33.85,0,57.41-12,57.41-45.83,0-36.14-25.22-48.18-57.41-48.18H422.65Zm0-162.81h82.54c18.34,0,43.65-9.73,43.65-39,0-29.78-21.21-39.62-43.65-39.62H422.65ZM316,289.34h191.5c70.59-1.1,148,17.22,148,102.62,0,36.68-21.83,66.55-54,82.62,43.64,12.62,70.54,50.43,70.54,96.91,0,97.5-71.62,127.33-159.36,127.33H316Z"/><path class="cls-1" d="M948.68,854.86c0,22.49-18.1,40.38-41.07,40.38s-41.39-17.89-41.39-40.38,18.33-40.17,41.58-40.17C930.58,814.69,948.68,832.29,948.68,854.86Zm-72.19,0c0,17.81,13.51,32.06,31.31,32.06,17.43.25,30.65-14.25,30.65-31.86,0-17.87-13.22-32.31-31.13-32.31C890,822.75,876.49,837.19,876.49,854.86Zm24.77,20.8h-9.34V835.48a110.28,110.28,0,0,1,15.4-1.21c7.64,0,11,1.21,13.73,3.19a10.1,10.1,0,0,1,4.18,8.56c0,4.87-3.7,8.09-8.36,9.57v.47c4,1.22,5.87,4.39,7.13,9.78,1.23,6.14,2.21,8.34,2.9,9.82h-9.75c-1.2-1.48-2-4.9-3.15-9.82-.79-4.13-3.22-6.11-8.36-6.11h-4.38Zm.2-22.51h4.43c5.1,0,9.28-1.74,9.28-5.92,0-3.68-2.68-6.09-8.55-6.09a20.24,20.24,0,0,0-5.16.5Z"/></svg>