<svg id="Capa_1" data-name="Capa 1" xmlns="http://www.w3.org/2000/svg" viewBox="0 0 368.86 49.21"><defs><style>.cls-1{fill:#011e41;}.cls-2{fill:#8ab7e9;}</style></defs><path class="cls-1" d="M4.48,11.81h9.41c5.45,0,7.31,4,7.31,8,0,5.52-3.4,8-8.47,8H9.86V38.45H4.48ZM9.86,23.87h2.39c2.13,0,3.58-1.27,3.58-4s-1.05-4.11-3.74-4.11H9.86Z"/><path class="cls-1" d="M32,11.3c8.06,0,9.07,5.73,9.07,13.84S40,39,32,39s-9.07-5.75-9.07-13.85S23.92,11.3,32,11.3ZM32,35c3.18,0,3.69-2.73,3.69-9.88s-.51-9.9-3.69-9.9-3.7,2.76-3.7,9.9S28.81,35,32,35Z"/><path class="cls-1" d="M42.28,11.81h5.14l2.95,19.7h.08l3.13-19.7h5.15l3.13,19.7h.08l3-19.7H70L65.19,38.45h-6l-3-19.32h-.08l-3,19.32h-6Z"/><path class="cls-1" d="M86.71,11.81v4.41H77.19v6.27h9V26.9h-9v7.17h9.9v4.38H71.83V11.81Z"/><path class="cls-1" d="M89.39,11.81h9.93c4.4,0,7.08,2.32,7.08,6.87,0,3.55-1.41,5.93-4.43,6.57v.08c3.65.49,4.21,2.5,4.3,8.13,0,2.79.17,4.26,1.18,4.77v.22h-5.82a5.17,5.17,0,0,1-.67-2.78l-.15-5.12c-.07-2.09-1-3.35-3.18-3.35H94.76V38.45H89.39Zm5.37,11.64H97c2.59,0,4-1.11,4-4,0-2.47-1.3-3.7-3.74-3.7H94.76Z"/><path class="cls-1" d="M124.65,11.81v4.41h-9.52v6.27h9V26.9h-9v7.17H125v4.38H109.77V11.81Z"/><path class="cls-1" d="M127.59,11.81h8.81c7.47,0,8.81,5.12,8.81,13,0,9.45-2,13.69-9.15,13.69h-8.47ZM133,34.51h2.39c3.73,0,4.47-2.35,4.47-9.61,0-6-.48-9.13-4.6-9.13H133Z"/><path class="cls-1" d="M157,11.81h9c4.4,0,7.58,1.65,7.58,6.75,0,2.88-1.38,5.08-4,5.84v.06c3,.41,4.85,2.66,4.85,6.2,0,4.18-2.05,7.79-8.32,7.79H157Zm5.37,10.94h1.53c3,0,4.3-1,4.3-3.5s-1.24-3.48-3.89-3.48h-1.94Zm0,11.76h2.09c2.58,0,4.33-.94,4.33-4s-1.75-4-4.11-4h-2.31Z"/><path class="cls-1" d="M181.61,11.81l3.51,10.3h.07l3.74-10.3h5.82L187.83,28V38.45h-5.36V28l-6.9-16.17Z"/><path class="cls-1" d="M203.26,4.19h24.12q6,0,9.26,3a9.68,9.68,0,0,1,3.23,7.39,9.34,9.34,0,0,1-2.3,6.34,10.14,10.14,0,0,1-4.48,2.79,11.56,11.56,0,0,1,6.58,3.7A10.15,10.15,0,0,1,241.78,34a11.35,11.35,0,0,1-1.5,5.81,11.08,11.08,0,0,1-4.13,4.08,13.4,13.4,0,0,1-4.88,1.35,53.46,53.46,0,0,1-5.78.57H203.26Zm13,16.35h5.63c2,0,3.43-.34,4.23-1a3.81,3.81,0,0,0,1.19-3,3.55,3.55,0,0,0-1.19-2.84q-1.2-1-4.14-1h-5.72Zm0,16.3h6.58c2.22,0,3.79-.39,4.7-1.17a3.92,3.92,0,0,0,1.37-3.15,3.67,3.67,0,0,0-1.35-3c-.91-.74-2.49-1.11-4.75-1.11h-6.55Z"/><path class="cls-2" d="M242.67,4.19h12.84V35.55h20.06V45.79h-32.9Z"/><path class="cls-2" d="M302.63,4.19h12.84V29a20.8,20.8,0,0,1-1.15,7,14.85,14.85,0,0,1-3.61,5.73,14.26,14.26,0,0,1-5.16,3.45,25.93,25.93,0,0,1-9,1.39,57.56,57.56,0,0,1-6.64-.42,17.31,17.31,0,0,1-6-1.69,15,15,0,0,1-4.42-3.59,13.37,13.37,0,0,1-2.75-4.8,25,25,0,0,1-1.18-7V4.19h12.83V29.6a7.22,7.22,0,0,0,1.9,5.33,7,7,0,0,0,5.24,1.91A7.11,7.11,0,0,0,300.74,35a7.25,7.25,0,0,0,1.89-5.36Z"/><path class="cls-2" d="M331.49,28c.4,4.6,3.07,7.88,7.95,7.88,2.51,0,5.27-.94,6.52-2.89h14.56c-3.15,8.75-11.72,12.8-21,12.8-13.06,0-22.89-7.64-22.89-21.15,0-11.79,8.65-21.39,21.55-21.39,16.2,0,23.2,9,23.2,24.75Zm14.95-8a6.67,6.67,0,0,0-6.85-6.79c-4.64,0-7.31,2.41-8,6.79Z"/><path class="cls-2" d="M365.26,8a3.53,3.53,0,1,1-3.5-3.43A3.46,3.46,0,0,1,365.26,8Zm-6.18,0a2.68,2.68,0,0,0,2.68,2.75A2.64,2.64,0,0,0,364.38,8a2.65,2.65,0,1,0-5.3,0Zm2.12,1.78h-.8V6.33a8.25,8.25,0,0,1,1.32-.11,1.79,1.79,0,0,1,1.17.28.82.82,0,0,1,.36.73.87.87,0,0,1-.71.81v.05c.34.1.5.37.61.83a2.89,2.89,0,0,0,.25.84h-.84a2.58,2.58,0,0,1-.27-.84c-.07-.35-.27-.52-.71-.52h-.38Zm0-1.92h.38c.44,0,.79-.15.79-.51s-.23-.52-.73-.52a2,2,0,0,0-.44,0Z"/></svg>