<?xml version="1.0" encoding="UTF-8" standalone="no"?><!DOCTYPE svg PUBLIC "-//W3C//DTD SVG 1.1//EN" "http://www.w3.org/Graphics/SVG/1.1/DTD/svg11.dtd"><svg width="100%" height="100%" viewBox="0 0 169 169" version="1.1" xmlns="http://www.w3.org/2000/svg" xmlns:xlink="http://www.w3.org/1999/xlink" xml:space="preserve" xmlns:serif="http://www.serif.com/" style="fill-rule:evenodd;clip-rule:evenodd;stroke-miterlimit:10;"><g><rect x="0.265" y="0.133" width="167.997" height="167.997" style="fill:#fff;"/><path d="M156.433,46.797l-2.77,-2.77c0.94,-1.283 1.62,-2.441 2.039,-3.476c0.419,-1.035 0.68,-2.236 0.782,-3.604c0.103,-1.368 0.035,-2.608 -0.205,-3.72c-0.239,-1.111 -0.718,-2.419 -1.436,-3.925c-0.36,-0.735 -0.535,-1.303 -0.526,-1.705c0.009,-0.402 0.192,-0.783 0.551,-1.142c0.479,-0.479 0.953,-0.671 1.424,-0.577c0.47,0.094 1.056,0.492 1.757,1.193l4.936,4.936l-0,-26.597l-27.315,0l5.141,5.141c0.53,0.53 0.812,1.017 0.846,1.462c0.035,0.445 -0.171,0.889 -0.615,1.334c-0.376,0.376 -0.727,0.573 -1.052,0.59c-0.325,0.017 -0.804,-0.137 -1.436,-0.462c-2.634,-1.333 -5.1,-1.894 -7.401,-1.68c-2.3,0.214 -4.553,1.218 -6.759,3.014l-3.002,-3.001l6.399,-6.398l-122.249,0l-0,122.249l9.095,-9.096l0.667,-0.667c1.214,-1.214 2.266,-1.376 3.155,-0.487c0.719,0.718 0.855,1.505 0.411,2.36l-0.539,1.052c-0.325,0.667 -0.008,1.479 0.949,2.436l25.678,25.678c0.958,0.958 1.77,1.275 2.437,0.949l1.051,-0.539c0.855,-0.444 1.642,-0.307 2.36,0.411c0.89,0.889 0.727,1.941 -0.487,3.155l-9.942,9.942l44.991,0c0.026,-0.076 0.028,-0.181 -0,-0.32c-0.038,-0.269 -0.225,-0.571 -0.561,-0.907l-14.408,-14.408c-0.336,-0.336 -0.638,-0.523 -0.907,-0.561c-0.144,-0.029 -0.254,-0.029 -0.331,0c-0.077,0.029 -0.326,0.149 -0.749,0.359c-0.508,0.26 -0.959,0.193 -1.353,-0.201c-0.239,-0.24 -0.331,-0.518 -0.273,-0.835c0.057,-0.317 0.259,-0.648 0.605,-0.993l6.779,-6.779l19.647,19.647l-4.998,4.998l74.166,0l-0,-74.166l-5.92,5.92c-0.422,0.422 -0.806,0.676 -1.151,0.763c-0.346,0.086 -0.648,0 -0.907,-0.26c-0.422,-0.422 -0.456,-0.916 -0.101,-1.482c0.279,-0.47 0.439,-0.751 0.482,-0.842c0.044,-0.091 0.051,-0.218 0.022,-0.382c-0.019,-0.306 -0.216,-0.647 -0.59,-1.021l-16.913,-16.913l6.391,-6.391l16.913,16.913c0.374,0.374 0.715,0.571 1.022,0.59c0.172,0.019 0.304,0.007 0.395,-0.036c0.052,-0.025 0.182,-0.098 0.357,-0.198l-0,-45.103l-6.552,6.552Zm-10.291,59.51l-1.584,-1.583c0.192,-0.307 0.312,-0.575 0.36,-0.806c0.048,-0.23 0.044,-0.489 -0.014,-0.777c-0.134,-0.653 -0.6,-1.377 -1.396,-2.174l-12.868,-12.867c-0.509,-0.509 -0.998,-0.826 -1.468,-0.95c-0.317,-0.087 -0.612,-0.108 -0.885,-0.065c-0.274,0.043 -0.612,0.161 -1.015,0.352l-1.555,-1.554c1.085,-0.988 2.243,-1.725 3.476,-2.209c1.233,-0.485 2.579,-0.737 4.038,-0.756c1.279,-0.016 2.53,0.175 3.758,0.536l-4.033,-4.033l3.785,-3.785l1.742,1.742c-0.192,0.71 -0.211,1.391 -0.057,2.043c0.24,1.066 0.734,2.116 1.482,3.153l0.734,1.022c0.231,0.326 0.346,0.647 0.346,0.964c-0,0.24 -0.092,0.451 -0.23,0.648c1.146,0.738 2.271,1.636 3.369,2.733c3.33,3.33 4.989,6.861 4.98,10.594c-0,2.879 -0.989,5.469 -2.965,7.772m-8.939,4.131c-3.732,0.01 -7.263,-1.65 -10.593,-4.98c-0.573,-0.572 -1.079,-1.158 -1.556,-1.751c0.331,0.648 0.58,1.304 0.701,1.972c0.278,1.584 0.053,3.182 -0.676,4.793c-0.615,1.325 -1.833,2.898 -3.656,4.721l-1.54,-1.54c0.316,-0.508 0.506,-0.899 0.568,-1.173c0.063,-0.273 0.046,-0.582 -0.05,-0.928c-0.173,-0.576 -0.576,-1.18 -1.209,-1.814l-4.606,-4.606c-0.451,-0.451 -0.82,-0.753 -1.109,-0.906c-0.287,-0.154 -0.623,-0.221 -1.007,-0.202c-0.547,0.01 -1.089,0.216 -1.627,0.619l-1.554,-1.555c1.977,-1.976 3.622,-3.248 4.937,-3.814c1.516,-0.652 3.037,-0.849 4.563,-0.59c1.554,0.269 2.994,1.065 4.318,2.389c0.165,0.166 0.296,0.335 0.446,0.502c-0.268,-0.456 -0.512,-0.918 -0.729,-1.385c-0.854,-1.842 -1.266,-3.718 -1.238,-5.628c0.019,-1.458 0.269,-2.802 0.749,-4.03c0.479,-1.228 1.214,-2.384 2.202,-3.469l1.555,1.555c-0.317,0.662 -0.427,1.243 -0.331,1.741c0.096,0.499 0.431,1.037 1.007,1.612l12.868,12.868c0.844,0.845 1.554,1.325 2.13,1.44c0.47,0.105 1.008,-0.019 1.612,-0.375l1.584,1.584c-2.304,1.957 -4.889,2.941 -7.759,2.95m-51.27,0.395c-0.239,-1.163 -1.069,-2.454 -2.488,-3.874l-22.933,-22.933c-0.906,-0.906 -1.778,-1.47 -2.616,-1.693c-0.565,-0.153 -1.091,-0.192 -1.578,-0.115c-0.488,0.077 -1.09,0.287 -1.809,0.629l-2.77,-2.771c1.933,-1.761 3.997,-3.074 6.195,-3.937c2.197,-0.864 4.596,-1.313 7.195,-1.347c6.892,-0.085 13.365,2.898 19.419,8.952c5.934,5.935 8.893,12.228 8.875,18.88c-0,5.13 -1.761,9.748 -5.284,13.852l-2.822,-2.821c0.342,-0.548 0.556,-1.026 0.642,-1.437c0.085,-0.41 0.077,-0.872 -0.026,-1.385m16.403,15.07c-0.048,-0.585 -0.273,-1.204 -0.677,-1.856c-0.288,-0.442 -0.439,-0.794 -0.453,-1.058c-0.015,-0.264 0.094,-0.511 0.324,-0.742c0.307,-0.307 0.638,-0.398 0.993,-0.273c0.192,0.058 0.509,0.307 0.95,0.748l5.484,5.484c0.451,0.451 0.712,0.814 0.784,1.087c0.072,0.274 -0.026,0.545 -0.295,0.813c-0.221,0.221 -0.46,0.327 -0.719,0.317c-0.26,-0.009 -0.586,-0.134 -0.979,-0.374c-0.825,-0.499 -1.567,-0.775 -2.224,-0.828c-0.657,-0.052 -1.283,0.103 -1.878,0.468l-1.67,-1.67c0.288,-0.825 0.408,-1.53 0.36,-2.116m-3.62,-6.772c-1.291,0.12 -2.555,0.684 -3.793,1.691l-1.684,-1.684l5.801,-5.8l5.095,5.095c0.298,0.298 0.456,0.571 0.475,0.821c0.019,0.249 -0.096,0.499 -0.345,0.748c-0.212,0.211 -0.408,0.322 -0.59,0.331c-0.183,0.01 -0.451,-0.077 -0.807,-0.259c-1.477,-0.748 -2.861,-1.063 -4.152,-0.943m-16.897,-44.15l10.466,5.027l7.722,7.722c0.786,0.786 1.38,1.321 1.783,1.603c0.401,0.282 0.91,0.526 1.526,0.731c1.112,0.394 2.172,0.462 3.181,0.205l1.564,-0.333c1.044,-0.256 1.805,-0.145 2.283,0.333c0.873,0.872 0.667,1.95 -0.615,3.232l-6.439,6.439c-1.283,1.282 -2.351,1.497 -3.206,0.641c-0.274,-0.273 -0.428,-0.538 -0.462,-0.795c-0.034,-0.256 0.017,-0.641 0.154,-1.154c0.872,-2.925 0.043,-5.652 -2.488,-8.183l-15.469,-15.468Zm37.301,56.074c-0.393,-0.393 -0.461,-0.844 -0.202,-1.353c0.212,-0.422 0.331,-0.671 0.36,-0.748c0.029,-0.077 0.029,-0.187 -0,-0.331c-0.038,-0.269 -0.225,-0.571 -0.561,-0.907l-14.408,-14.408c-0.336,-0.336 -0.638,-0.523 -0.907,-0.561c-0.144,-0.029 -0.254,-0.029 -0.331,0c-0.077,0.029 -0.326,0.148 -0.749,0.359c-0.508,0.26 -0.959,0.192 -1.352,-0.201c-0.24,-0.24 -0.332,-0.518 -0.274,-0.835c0.058,-0.317 0.259,-0.648 0.605,-0.993l6.779,-6.779l16.913,16.912c0.374,0.374 0.714,0.571 1.021,0.59c0.173,0.019 0.305,0.008 0.396,-0.036c0.091,-0.043 0.372,-0.204 0.842,-0.482c0.566,-0.355 1.061,-0.322 1.483,0.101c0.25,0.249 0.326,0.576 0.23,0.978c-0.067,0.298 -0.312,0.658 -0.734,1.08l-7.283,7.283c-0.346,0.346 -0.677,0.547 -0.993,0.605c-0.317,0.057 -0.595,-0.034 -0.835,-0.274m-6.219,7.716l-1.555,-1.554c0.528,-0.72 0.909,-1.37 1.145,-1.95c0.235,-0.581 0.381,-1.255 0.438,-2.023c0.058,-0.767 0.02,-1.463 -0.115,-2.087c-0.134,-0.623 -0.403,-1.357 -0.806,-2.202c-0.201,-0.413 -0.299,-0.732 -0.295,-0.957c0.005,-0.226 0.108,-0.439 0.31,-0.641c0.268,-0.268 0.535,-0.376 0.798,-0.324c0.264,0.053 0.593,0.276 0.987,0.67l5.08,5.081l-5.987,5.987Zm-9.745,6.305c0.029,-0.077 0.029,-0.187 -0,-0.331c-0.038,-0.269 -0.225,-0.571 -0.561,-0.907l-14.408,-14.408c-0.336,-0.336 -0.638,-0.523 -0.907,-0.562c-0.144,-0.028 -0.254,-0.028 -0.331,0c-0.077,0.029 -0.326,0.149 -0.748,0.36c-0.509,0.26 -0.96,0.192 -1.353,-0.201c-0.24,-0.24 -0.331,-0.518 -0.274,-0.835c0.058,-0.317 0.259,-0.648 0.605,-0.993l0.374,-0.374l6.405,-6.406l19.647,19.648l-6.779,6.779c-0.346,0.345 -0.677,0.547 -0.993,0.605c-0.317,0.057 -0.595,-0.034 -0.835,-0.274c-0.393,-0.393 -0.461,-0.844 -0.202,-1.353c0.212,-0.422 0.332,-0.671 0.36,-0.748m-27.705,-8.149c0.508,-0.509 0.96,-0.921 1.353,-1.238c1.353,-1.084 3.051,-1.746 5.095,-1.987c2.006,-0.258 3.983,0.039 5.93,0.893c1.987,0.854 3.844,2.144 5.571,3.872c1.957,1.957 3.337,4.057 4.138,6.297c0.801,2.241 0.967,4.469 0.497,6.686c-0.231,1.075 -0.55,1.969 -0.958,2.684c-0.407,0.715 -1.067,1.528 -1.979,2.44l-1.554,-1.555c0.297,-0.508 0.482,-0.885 0.554,-1.13c0.072,-0.244 0.074,-0.515 0.007,-0.813c-0.067,-0.355 -0.206,-0.69 -0.417,-1.007c-0.211,-0.317 -0.571,-0.729 -1.08,-1.238l-11.356,-11.357c-0.701,-0.7 -1.358,-1.156 -1.972,-1.367c-0.394,-0.144 -0.744,-0.187 -1.051,-0.13c-0.307,0.058 -0.701,0.24 -1.18,0.547l-1.598,-1.597Zm-3.242,-13.089c-6.652,0.018 -12.945,-2.941 -18.88,-8.875c-2.975,-2.976 -5.224,-6.105 -6.746,-9.389c-1.522,-3.283 -2.257,-6.626 -2.206,-10.03c0.034,-2.599 0.479,-4.993 1.334,-7.182c0.855,-2.189 2.163,-4.25 3.925,-6.182l2.77,2.77c-0.564,1.18 -0.761,2.215 -0.59,3.104c0.171,0.889 0.769,1.847 1.796,2.873l22.932,22.933c1.506,1.505 2.771,2.36 3.797,2.565c0.838,0.188 1.796,-0.034 2.873,-0.667l2.822,2.822c-4.105,3.488 -8.713,5.241 -13.827,5.258m-51.929,-10.918l0.667,-0.667l11.416,-11.415l0.692,-0.693c1.283,-1.283 2.369,-1.479 3.258,-0.59c0.701,0.702 0.821,1.506 0.359,2.411c-0.376,0.753 -0.59,1.198 -0.641,1.334c-0.051,0.137 -0.051,0.334 -0,0.59c0.068,0.479 0.402,1.018 1,1.616l25.575,25.575c0.941,0.941 1.77,1.257 2.488,0.949l1.103,-0.538c0.907,-0.462 1.719,-0.334 2.437,0.385c0.907,0.906 0.719,2 -0.564,3.283l-0.692,0.693l-11.416,11.415l-0.718,0.718c-1.197,1.197 -2.249,1.343 -3.155,0.436c-0.718,-0.718 -0.864,-1.513 -0.436,-2.386l0.538,-1.103c0.342,-0.649 0.018,-1.47 -0.974,-2.462l-11.851,-11.851l-4.182,4.181l-2.539,-2.54l4.181,-4.181l-11.184,-11.184c-0.958,-0.958 -1.77,-1.274 -2.437,-0.949l-1.077,0.564c-0.856,0.445 -1.642,0.308 -2.361,-0.41c-0.889,-0.889 -0.718,-1.95 0.513,-3.181m2.039,-46.478l1.643,1.642c-0.181,0.67 -0.199,1.312 -0.055,1.927c0.227,1.005 0.693,1.995 1.398,2.973l0.693,0.963c0.217,0.308 0.325,0.611 0.325,0.91c-0,0.298 -0.113,0.561 -0.339,0.787c-0.235,0.235 -0.509,0.346 -0.821,0.332c-0.312,-0.013 -0.599,-0.151 -0.862,-0.414l-5.551,-5.551l3.569,-3.569Zm7.126,-7.126l15.948,15.948c0.352,0.353 0.674,0.538 0.963,0.556c0.163,0.018 0.288,0.007 0.374,-0.034c0.086,-0.04 0.35,-0.192 0.794,-0.454c0.534,-0.335 0.999,-0.303 1.397,0.095c0.236,0.235 0.308,0.543 0.218,0.923c-0.064,0.28 -0.299,0.624 -0.706,1.031l-6.949,6.949c-0.399,0.398 -0.76,0.638 -1.086,0.72c-0.326,0.081 -0.611,0 -0.855,-0.245c-0.398,-0.398 -0.43,-0.864 -0.095,-1.398c0.262,-0.443 0.414,-0.708 0.454,-0.794c0.041,-0.085 0.048,-0.205 0.021,-0.359c-0.018,-0.29 -0.204,-0.611 -0.557,-0.964l-15.947,-15.948l6.026,-6.026Zm4.696,-4.696l5.551,5.551c0.263,0.263 0.401,0.55 0.414,0.862c0.014,0.312 -0.097,0.586 -0.332,0.821c-0.227,0.226 -0.489,0.34 -0.788,0.34c-0.298,0 -0.601,-0.109 -0.909,-0.326l-0.964,-0.692c-0.977,-0.706 -1.968,-1.172 -2.972,-1.398c-0.624,-0.136 -1.267,-0.118 -1.927,0.054l-1.643,-1.642l3.57,-3.57Zm10.506,-7.629l-0.285,0.557c-0.172,0.353 -0.004,0.783 0.502,1.289l13.586,13.586c0.507,0.507 0.937,0.675 1.29,0.502l0.556,-0.284c0.453,-0.236 0.869,-0.164 1.249,0.217c0.471,0.47 0.384,1.027 -0.258,1.669l-6.759,6.759c-0.326,0.326 -0.638,0.516 -0.937,0.57c-0.298,0.054 -0.56,-0.032 -0.787,-0.258c-0.371,-0.371 -0.434,-0.796 -0.19,-1.276c0.199,-0.398 0.312,-0.633 0.34,-0.705c0.027,-0.073 0.027,-0.177 -0,-0.313c-0.037,-0.253 -0.213,-0.538 -0.53,-0.855l-13.586,-13.586c-0.316,-0.316 -0.601,-0.493 -0.855,-0.529c-0.136,-0.027 -0.24,-0.027 -0.312,0c-0.072,0.027 -0.308,0.14 -0.706,0.339c-0.479,0.245 -0.904,0.181 -1.276,-0.19c-0.226,-0.226 -0.312,-0.488 -0.258,-0.787c0.055,-0.298 0.245,-0.611 0.571,-0.936l0.352,-0.353l6.054,-6.054l0.353,-0.352c0.642,-0.643 1.199,-0.729 1.669,-0.258c0.38,0.38 0.452,0.796 0.217,1.248m9.229,-10.695c0.372,0.371 0.435,0.797 0.19,1.276c-0.198,0.398 -0.312,0.634 -0.339,0.706c-0.027,0.072 -0.027,0.176 -0,0.312c0.036,0.254 0.213,0.538 0.53,0.855l13.531,13.532c0.498,0.498 0.937,0.665 1.317,0.502l0.583,-0.285c0.48,-0.244 0.91,-0.177 1.29,0.204c0.479,0.479 0.38,1.058 -0.299,1.737l-6.786,6.786c-0.633,0.633 -1.19,0.71 -1.67,0.231c-0.38,-0.38 -0.457,-0.801 -0.23,-1.262l0.285,-0.584c0.181,-0.344 0.009,-0.778 -0.516,-1.303l-6.27,-6.271l-2.213,2.213l-1.343,-1.344l2.212,-2.212l-5.918,-5.918c-0.506,-0.506 -0.936,-0.674 -1.289,-0.502l-0.57,0.299c-0.453,0.235 -0.869,0.162 -1.249,-0.218c-0.47,-0.47 -0.38,-1.031 0.272,-1.683l0.353,-0.352l6.039,-6.04l0.367,-0.367c0.678,-0.678 1.253,-0.782 1.723,-0.312m7.271,-8.681l18.526,18.526l-6.393,6.393c-0.326,0.326 -0.638,0.516 -0.936,0.57c-0.299,0.054 -0.561,-0.032 -0.788,-0.258c-0.37,-0.371 -0.434,-0.796 -0.19,-1.276c0.2,-0.398 0.313,-0.633 0.34,-0.706c0.027,-0.072 0.027,-0.176 -0,-0.312c-0.036,-0.253 -0.213,-0.538 -0.53,-0.855l-13.586,-13.586c-0.316,-0.317 -0.601,-0.493 -0.855,-0.529c-0.135,-0.027 -0.24,-0.027 -0.312,0c-0.072,0.027 -0.307,0.14 -0.706,0.339c-0.479,0.245 -0.904,0.181 -1.275,-0.19c-0.227,-0.226 -0.313,-0.489 -0.258,-0.787c0.054,-0.299 0.244,-0.611 0.57,-0.937l0.353,-0.352l6.04,-6.04Zm11.93,-1.099c0.018,0.235 -0.091,0.47 -0.326,0.705c-0.199,0.199 -0.385,0.304 -0.557,0.312c-0.172,0.009 -0.425,-0.072 -0.76,-0.244c-1.393,-0.706 -2.698,-1.002 -3.915,-0.889c-1.217,0.113 -2.409,0.645 -3.577,1.595l-1.588,-1.588l5.47,-5.47l4.805,4.805c0.28,0.28 0.43,0.538 0.448,0.774m4.838,9.466c0.068,0.258 -0.025,0.514 -0.278,0.767c-0.208,0.208 -0.434,0.308 -0.679,0.299c-0.244,-0.009 -0.552,-0.127 -0.923,-0.353c-0.778,-0.471 -1.477,-0.731 -2.097,-0.781c-0.619,-0.049 -1.21,0.098 -1.771,0.442l-1.574,-1.575c0.271,-0.778 0.384,-1.443 0.339,-1.995c-0.045,-0.552 -0.258,-1.136 -0.638,-1.751c-0.271,-0.416 -0.414,-0.748 -0.427,-0.998c-0.014,-0.248 0.088,-0.481 0.305,-0.698c0.29,-0.29 0.602,-0.376 0.937,-0.258c0.181,0.054 0.479,0.289 0.895,0.705l5.171,5.171c0.426,0.426 0.672,0.767 0.74,1.025m8.625,3.291l-5.646,5.647l-1.466,-1.466c0.498,-0.679 0.858,-1.292 1.079,-1.839c0.222,-0.548 0.36,-1.183 0.414,-1.907c0.055,-0.724 0.019,-1.38 -0.108,-1.968c-0.127,-0.588 -0.38,-1.28 -0.76,-2.077c-0.19,-0.389 -0.283,-0.69 -0.278,-0.902c0.004,-0.213 0.101,-0.414 0.291,-0.604c0.254,-0.254 0.505,-0.355 0.754,-0.306c0.248,0.05 0.558,0.261 0.929,0.631l4.791,4.791Zm17.93,-4.412c-0.051,0.137 -0.051,0.333 -0,0.59c0.069,0.479 0.402,1.018 1,1.616l25.678,25.678c0.599,0.599 1.138,0.932 1.616,1c0.257,0.051 0.454,0.052 0.59,0c0.137,-0.051 0.582,-0.265 1.334,-0.641c0.906,-0.462 1.71,-0.342 2.411,0.359c0.89,0.889 0.693,1.975 -0.59,3.258l-12.954,12.954c-0.753,0.753 -1.436,1.206 -2.052,1.36c-0.616,0.153 -1.154,0 -1.616,-0.462c-0.752,-0.753 -0.812,-1.633 -0.18,-2.642c0.497,-0.838 0.783,-1.338 0.86,-1.501c0.077,-0.162 0.098,-0.38 0.064,-0.654c-0.052,-0.564 -0.411,-1.18 -1.078,-1.847l-22.227,-22.106l19.021,35.06l-1.359,1.36l-39.479,-19.573c-1.334,-0.649 -2.36,-0.957 -3.078,-0.923c-0.445,0 -0.992,0.222 -1.642,0.667c-1.351,0.872 -2.437,0.898 -3.258,0.077c-0.444,-0.445 -0.632,-0.949 -0.564,-1.514c0.069,-0.564 0.402,-1.145 1,-1.744l12.006,-12.005l19.444,9.337l-5.541,-10.004l-4.464,-8.773l12.082,-12.082c1.283,-1.283 2.369,-1.479 3.258,-0.59c0.702,0.701 0.821,1.505 0.359,2.411c-0.376,0.753 -0.589,1.198 -0.641,1.334m45.807,-3.507c-0.394,0.394 -0.821,0.582 -1.283,0.565c-0.462,-0.017 -1.043,-0.239 -1.744,-0.667c-1.471,-0.889 -2.792,-1.381 -3.963,-1.475c-1.172,-0.094 -2.288,0.184 -3.348,0.834l-2.976,-2.976c0.513,-1.47 0.727,-2.728 0.642,-3.771c-0.086,-1.043 -0.488,-2.146 -1.206,-3.309c-0.513,-0.786 -0.782,-1.415 -0.808,-1.885c-0.026,-0.47 0.167,-0.911 0.577,-1.321c0.547,-0.548 1.137,-0.71 1.77,-0.488c0.342,0.103 0.907,0.548 1.693,1.334l9.773,9.774c0.805,0.803 1.27,1.449 1.399,1.936c0.128,0.488 -0.048,0.971 -0.526,1.449m3.847,17.752l-12.082,12.082c-0.615,0.615 -1.205,0.974 -1.77,1.077c-0.564,0.103 -1.06,-0.06 -1.487,-0.487c-0.701,-0.701 -0.821,-1.505 -0.36,-2.412c0.377,-0.752 0.59,-1.196 0.642,-1.334c0.051,-0.136 0.051,-0.333 -0,-0.589c-0.068,-0.479 -0.402,-1.018 -1.001,-1.617l-25.677,-25.677c-0.599,-0.599 -1.137,-0.932 -1.616,-1.001c-0.257,-0.051 -0.454,-0.05 -0.59,0c-0.137,0.052 -0.581,0.266 -1.334,0.642c-0.906,0.462 -1.71,0.342 -2.411,-0.359c-0.428,-0.428 -0.59,-0.924 -0.488,-1.488c0.103,-0.565 0.462,-1.154 1.077,-1.77l0.667,-0.667l11.416,-11.415l35.014,35.015Zm1.48,20.794c0.015,0.331 -0.103,0.622 -0.352,0.871c-0.24,0.24 -0.519,0.36 -0.835,0.36c-0.317,0 -0.638,-0.115 -0.965,-0.346l-1.022,-0.734c-1.036,-0.748 -2.087,-1.242 -3.152,-1.482c-0.662,-0.144 -1.343,-0.125 -2.043,0.057l-1.742,-1.741l3.785,-3.786l5.887,5.887c0.279,0.279 0.425,0.583 0.439,0.914m-149.919,63.746c-0.031,0.012 -0.082,0.035 -0.143,0.062l-0,29.145l28.881,0c0.072,-0.151 0.125,-0.268 0.146,-0.322c0.051,-0.137 0.051,-0.334 -0,-0.59c-0.068,-0.479 -0.402,-1.018 -1.001,-1.617l-25.677,-25.677c-0.599,-0.598 -1.137,-0.932 -1.616,-1.001c-0.257,-0.051 -0.454,-0.05 -0.59,0" style="fill:#f58427;fill-rule:nonzero;"/><path d="M154.578,150.719c-2.044,-0 -3.636,1.593 -3.636,3.706c-0,2.15 1.592,3.734 3.636,3.734c2.02,-0 3.614,-1.584 3.614,-3.734c-0,-2.113 -1.594,-3.706 -3.614,-3.706" style="fill:#f58427;fill-rule:nonzero;"/><path d="M154.578,149.965c-2.46,-0 -4.544,1.894 -4.544,4.46c-0,2.593 2.084,4.484 4.544,4.484c2.436,-0 4.52,-1.891 4.52,-4.484c-0,-2.566 -2.084,-4.46 -4.52,-4.46" style="fill:#f58427;fill-rule:nonzero;"/><path d="M154.578,149.965c-2.46,-0 -4.544,1.894 -4.544,4.46c-0,2.593 2.084,4.484 4.544,4.484c2.436,-0 4.52,-1.891 4.52,-4.484c-0,-2.566 -2.084,-4.46 -4.52,-4.46Z" style="fill:none;fill-rule:nonzero;stroke:#fff;stroke-width:0.92px;"/><path d="M155.299,154.745c0.753,-0.095 1.333,-0.497 1.333,-1.417c-0,-1.016 -0.602,-1.464 -1.818,-1.464l-1.96,-0l0.002,5.149l0.777,-0l-0,-2.232l0.899,-0l1.357,2.232l0.872,-0l-1.462,-2.268Z" style="fill:#fff;fill-rule:nonzero;"/><path d="M154.695,152.526l-1.062,-0l-0,1.593l0.933,-0c0.66,-0 1.251,-0.046 1.251,-0.838c-0,-0.637 -0.578,-0.755 -1.122,-0.755" style="fill:#f58427;fill-rule:nonzero;"/></g></svg>